# xmcd
#
# Track frame offsets:
#	150
#	14346
#	53586
#	165402
#	185201
#	275599
#
# Disc length: 4473 seconds
#
# Revision: 1
# Processed by: cddbd v1.5.2PL0 Copyright (c) Steve Scherf et al.
# Submitted via: audiograbber 1.83.01
#
DISCID=4b117706
DTITLE=Grateful Dead - 73-08-01 Roosevelt Stadium, Jersey City NJ
DYEAR=1900
DGENRE=
TTITLE0=Me and My Uncle
TTITLE1=Row Jimmy
TTITLE2=Dark Star
TTITLE3=El Paso
TTITLE4=Eyes Of The World
TTITLE5=Morning Dew
EXTD=
EXTT0=
EXTT1=
EXTT2=
EXTT3=
EXTT4=
EXTT5=
PLAYORDER=
